<svg xmlns="http://www.w3.org/2000/svg" viewBox="0 0 224.95 47.05">
  <defs>
    <style>
      .a {
        fill: #fff;
      }
    </style>
  </defs>
  <title>Asset 1</title>
  <g>
    <g>
      <path class="a" d="M13.73,42.42H9.82v3.45h4.36v1H8.53V37.34H14v1H9.82v3h3.91Z"/>
      <path class="a" d="M30.79,37.34h1.3v8.53h4.3v1h-5.6Z"/>
      <path class="a" d="M58,42.42H54.06v3.45h4.36v1H52.77V37.34H58.2v1H54.06v3H58Z"/>
      <path class="a" d="M82.06,46.6a6.83,6.83,0,0,1-2.65.45c-2.84,0-5-1.7-5-4.84a4.88,4.88,0,0,1,5.25-5,5.72,5.72,0,0,1,2.39.42l-.32,1a4.86,4.86,0,0,0-2-.4,3.65,3.65,0,0,0-3.92,4A3.57,3.57,0,0,0,79.68,46a5.4,5.4,0,0,0,2.11-.4Z"/>
      <path class="a" d="M100.94,38.39h-3v-1h7.44v1h-3.07v8.52h-1.32Z"/>
      <path class="a" d="M121.38,37.47a13.94,13.94,0,0,1,2.49-.2,4.26,4.26,0,0,1,2.91.78,2.33,2.33,0,0,1,.79,1.82,2.53,2.53,0,0,1-1.89,2.44v0a2.42,2.42,0,0,1,1.47,1.93,14.55,14.55,0,0,0,.78,2.63h-1.34a11.67,11.67,0,0,1-.68-2.29c-.29-1.32-.83-1.81-2-1.85h-1.22v4.14h-1.3Zm1.3,4.36H124c1.39,0,2.27-.72,2.27-1.82s-.94-1.77-2.31-1.79a5.27,5.27,0,0,0-1.28.12Z"/>
      <path class="a" d="M145.63,37.34v9.57h-1.3V37.34Z"/>
      <path class="a" d="M169.86,46.6a6.93,6.93,0,0,1-2.66.45c-2.84,0-5-1.7-5-4.84a4.88,4.88,0,0,1,5.25-5,5.64,5.64,0,0,1,2.39.42l-.31,1a4.93,4.93,0,0,0-2-.4,3.65,3.65,0,0,0-3.93,4A3.57,3.57,0,0,0,167.47,46a5.49,5.49,0,0,0,2.12-.4Z"/>
      <path class="a" d="M188.1,43.9l-1,3h-1.34l3.42-9.57h1.56l3.43,9.57h-1.38l-1.08-3Zm3.29-1-1-2.76c-.22-.62-.37-1.19-.52-1.74h0c-.15.56-.32,1.15-.51,1.73l-1,2.77Z"/>
      <path class="a" d="M210.53,37.34h1.3v8.53h4.3v1h-5.6Z"/>
    </g>
    <path class="a" d="M18.07,5.74l5.28,23H13.91l-.5-4.13h-3.3l-.56,4.13H0l4.71-23Zm-4.9,14.8q-.7-3.9-1.41-9.66Q10.35,17.49,10,20.54Z"/>
    <path class="a" d="M24.92,5.74h6.54a76.3,76.3,0,0,1,8.86.33,6.86,6.86,0,0,1,3.77,1.67A5.6,5.6,0,0,1,45.55,12c0,1.79-.34,3-1,3.61s-2,1-4.06,1.11a8.72,8.72,0,0,1,3.69,1.18,3.42,3.42,0,0,1,1.17,1.36,14.24,14.24,0,0,1,.23,3.41v6.06H37V21.11a3.59,3.59,0,0,0-.45-2.28,3.83,3.83,0,0,0-2.36-.45V28.76H24.92Zm9.24,3.94V14.8a5.8,5.8,0,0,0,2.18-.28c.42-.18.63-.78.63-1.79V11.46a1.52,1.52,0,0,0-.6-1.44A5.08,5.08,0,0,0,34.16,9.68Z"/>
    <path class="a" d="M77.64,5.74v23H69.56V13.23L66.33,28.76H60.61l-3.4-15.18V28.76H49.13v-23H61.08c.36,1.39.72,3,1.1,4.9l1.31,5.85L65.62,5.74Z"/>
    <path class="a" d="M100.92,12.71H92.34V11A2.31,2.31,0,0,0,92,9.49a1.5,1.5,0,0,0-1.09-.33,1.68,1.68,0,0,0-1.27.44,1.87,1.87,0,0,0-.43,1.34,2.68,2.68,0,0,0,.49,1.73,6.86,6.86,0,0,0,2.61,1.41q6.17,2.37,7.77,3.89c1.07,1,1.6,2.65,1.6,4.91a6,6,0,0,1-.89,3.63,6.87,6.87,0,0,1-3.43,1.95,20.32,20.32,0,0,1-5.93.79,19.33,19.33,0,0,1-6.33-.91A6.06,6.06,0,0,1,81.68,26a8,8,0,0,1-.82-4V20.52h8.59v2.8A2.57,2.57,0,0,0,89.81,25a1.75,1.75,0,0,0,1.28.37,1.82,1.82,0,0,0,1.37-.46,2,2,0,0,0,.45-1.4c0-1.36-.28-2.24-.85-2.66a29.8,29.8,0,0,0-4.33-2.09,46.23,46.23,0,0,1-4.56-2.15,5.45,5.45,0,0,1-1.86-1.84,5.65,5.65,0,0,1-.73-3,6,6,0,0,1,1-3.87A7,7,0,0,1,85,6a19.93,19.93,0,0,1,5.62-.69A21.8,21.8,0,0,1,96.74,6a6.29,6.29,0,0,1,3.36,1.91,6.84,6.84,0,0,1,.82,3.88Z"/>
    <path class="a" d="M123.2,5.74v4.61h-5.49V28.76h-9.24V10.35H103V5.74Z"/>
    <path class="a" d="M125.31,5.74h6.53a76.18,76.18,0,0,1,8.86.33,6.93,6.93,0,0,1,3.78,1.67A5.6,5.6,0,0,1,145.93,12c0,1.79-.34,3-1,3.61s-2,1-4.06,1.11a8.72,8.72,0,0,1,3.69,1.18,3.42,3.42,0,0,1,1.17,1.36,13.69,13.69,0,0,1,.23,3.41v6.06h-8.58V21.11a3.59,3.59,0,0,0-.45-2.28,3.81,3.81,0,0,0-2.36-.45V28.76h-9.23Zm9.23,3.94V14.8a5.89,5.89,0,0,0,2.19-.28c.41-.18.62-.78.62-1.79V11.46a1.52,1.52,0,0,0-.6-1.44A5.05,5.05,0,0,0,134.54,9.68Z"/>
    <path class="a" d="M200,5.74v23h-8.1l-4.8-10.46V28.76h-7.73v-23h7.73l5.17,10.37V5.74Z"/>
    <path class="a" d="M225,14.22h-9.24V12.13a7,7,0,0,0-.26-2.47c-.18-.34-.59-.5-1.25-.5a1.36,1.36,0,0,0-1.17.43,4.69,4.69,0,0,0-.3,2.18V22.82a4.52,4.52,0,0,0,.3,2,1.35,1.35,0,0,0,1.23.49,1.51,1.51,0,0,0,1.37-.55,4.25,4.25,0,0,0,.37-2.16V19.9h-1.87V16.41H225V28.76h-5.81l-.85-1.64a5.75,5.75,0,0,1-2.38,1.59,9.66,9.66,0,0,1-3.4.54,12.75,12.75,0,0,1-4.36-.74,8,8,0,0,1-3.08-1.81,4.77,4.77,0,0,1-1.32-2.27,17.42,17.42,0,0,1-.26-3.56V14A15,15,0,0,1,204,9.24c.36-1,1.41-1.91,3.14-2.73a15.52,15.52,0,0,1,6.73-1.25,18.16,18.16,0,0,1,6.74,1.08,6.62,6.62,0,0,1,3.49,2.57,9.21,9.21,0,0,1,.81,4.32Z"/>
    <g>
      <path class="a" d="M161.17,4.61l-4.36,9.17,4.13-.14-4.89,9.7,4.23.05L153.61,37l2.15-9.1a12.58,12.58,0,0,1-5.6-14S152.18,5.54,161.17,4.61Z"/>
      <path class="a" d="M171.59,0l-7.25,10,4.53-.16-5.69,8.82,5.65-.05-9.74,10.93s10.33,2.81,14.83-6.78c0,0,5-9.71-5-16.26Z"/>
    </g>
  </g>
</svg>
